<?xml version="1.0" encoding="UTF-8" standalone="no"?>
<svg
   xmlns:dc="http://purl.org/dc/elements/1.1/"
   xmlns:cc="http://creativecommons.org/ns#"
   xmlns:rdf="http://www.w3.org/1999/02/22-rdf-syntax-ns#"
   xmlns:svg="http://www.w3.org/2000/svg"
   xmlns="http://www.w3.org/2000/svg"
   xmlns:sodipodi="http://sodipodi.sourceforge.net/DTD/sodipodi-0.dtd"
   xmlns:inkscape="http://www.inkscape.org/namespaces/inkscape"
   version="1.1"
   width="290"
   height="290"
   id="svg87"
   viewBox="0 0 290 290"
   sodipodi:docname="caixa.svg"
   inkscape:version="0.92.5 (2060ec1f9f, 2020-04-08)">
  <metadata
     id="metadata93">
    <rdf:RDF>
      <cc:Work
         rdf:about="">
        <dc:format>image/svg+xml</dc:format>
        <dc:type
           rdf:resource="http://purl.org/dc/dcmitype/StillImage" />
        <dc:title></dc:title>
      </cc:Work>
    </rdf:RDF>
  </metadata>
  <defs
     id="defs91" />
  <sodipodi:namedview
     pagecolor="#ffffff"
     bordercolor="#666666"
     borderopacity="1"
     objecttolerance="10"
     gridtolerance="10"
     guidetolerance="10"
     inkscape:pageopacity="0"
     inkscape:pageshadow="2"
     inkscape:window-width="1366"
     inkscape:window-height="714"
     id="namedview89"
     showgrid="false"
     inkscape:zoom="0.6295361"
     inkscape:cx="297.63779"
     inkscape:cy="166.78948"
     inkscape:window-x="1366"
     inkscape:window-y="26"
     inkscape:window-maximized="1"
     inkscape:current-layer="svg87" />
  <g
     id="Layer1000"
     transform="translate(-152.63785,-275.945)">
    <path
       d="m 155.9056,315.773 v 210.344 q 0,29.791 29.791,29.791 h 223.8825 q 29.791,0 29.791,-29.791 V 315.773 q 0,-29.791 -29.791,-29.791 H 185.6966 q -29.791,0 -29.791,29.791 z"
       style="fill:#006cb1;fill-rule:evenodd"
       id="path64"
       inkscape:connector-curvature="0" />
    <path
       d="m 197.5317,308.1556 10.0676,19.9423 h 17.887 l -10.0676,-19.9423 z"
       style="fill:#ffffff;fill-rule:evenodd"
       id="path66"
       inkscape:connector-curvature="0" />
    <path
       d="m 226.4901,308.1556 h 17.8869 l -18.8901,19.9423 -6.2187,-12.3176 z"
       style="fill:#fab100;fill-rule:evenodd"
       id="path68"
       inkscape:connector-curvature="0" />
    <path
       d="M 233.0716,349.6838 223.004,329.7415 h -17.8869 l 10.0676,19.9423 z"
       style="fill:#ffffff;fill-rule:evenodd"
       id="path70"
       inkscape:connector-curvature="0" />
    <path
       d="m 204.1133,349.6838 h -17.887 l 18.8902,-19.9423 6.2187,12.3177 z"
       style="fill:#fab100;fill-rule:evenodd"
       id="path72"
       inkscape:connector-curvature="0" />
    <path
       d="m 307.5383,339.7807 c 40.3707,0 73.097,28.7298 73.097,64.1699 0,35.4401 -32.7263,64.1698 -73.097,64.1698 -12.5971,0 -24.4467,-2.7991 -34.7925,-7.7262 v 0.005 l -35.6106,10.4383 c -0.508,0.1505 -0.9814,0.2285 -1.513,0.2285 -2.81,0 -5.0885,-2.2785 -5.0885,-5.0885 0,-1.8014 11.1821,-27.5815 12.7404,-31.4237 h 0.004 c -5.6346,-9.0959 -8.8365,-19.5214 -8.8365,-30.6037 0,-35.4401 32.7263,-64.1699 73.0971,-64.1699 z m -34.9122,111.0279 v -0.006 c 10.0319,5.7725 22.023,9.1322 34.9122,9.1322 35.2205,0 63.7725,-25.0653 63.7725,-55.9847 0,-30.9194 -28.552,-55.9847 -63.7725,-55.9847 -35.2206,0 -63.7726,25.0653 -63.7726,55.9847 0,10.665 3.3978,20.6335 9.2936,29.118 l -3.8223,9.5892 -0.002,-0.002 -6.9135,17.3409 z"
       style="fill:#ffffff;fill-rule:evenodd"
       id="path74"
       inkscape:connector-curvature="0" />
    <path
       d="m 298.9381,385.993 a 12.0088,13.6794 0 0 1 -12.0088,13.6795 12.0088,13.6794 0 1 1 12.0088,-13.6795 z"
       style="fill:#ffffff;fill-rule:evenodd"
       id="path76"
       inkscape:connector-curvature="0" />
    <path
       d="m 312.9334,382.2976 v 7.5956 q 0,1.2245 1.2245,1.2245 h 23.9641 q 1.2245,0 1.2245,-1.2245 v -7.5956 q 0,-1.2245 -1.2245,-1.2245 h -23.9641 q -1.2245,0 -1.2245,1.2245 z"
       style="fill:#ffffff;fill-rule:evenodd"
       id="path78"
       inkscape:connector-curvature="0" />
    <path
       d="m 345.0555,409.255 -0.005,0.029 c -2.4744,19.4979 -18.3223,34.5349 -37.5117,34.5349 -19.1696,0 -35.012,-15.0098 -37.5064,-34.4787 l 0.007,-0.002 c -0.0381,-0.1233 -0.0563,-0.2558 -0.0563,-0.3918 0,-0.7456 0.6041,-1.3497 1.3497,-1.3497 0.4463,0 0.8399,0.2195 1.0867,0.5515 l 0.0145,0.0163 0.0163,0.0236 0.002,0.004 c 7.8514,10.0465 20.6172,16.5282 35.0864,16.5282 14.4256,0 27.2041,-6.5035 35.0663,-16.501 l 0.0127,-0.0181 c 0.2413,-0.3628 0.6549,-0.6041 1.1248,-0.6041 0.7456,0 1.3497,0.6041 1.3497,1.3497 0,0.1052 -0.0146,0.2104 -0.0363,0.3084 z m -75.029,0.0871 c 0.005,0.0526 0.007,0.078 0.002,0 z"
       style="fill:#ffffff;fill-rule:evenodd"
       id="path80"
       inkscape:connector-curvature="0" />
    <path
       d="m 211.1955,528.2576 h 8.4772 l 2.8572,-5.3443 h 11.4869 l 1.1918,5.3443 h 8.4773 l -7.0696,-31.6995 h -8.4772 z m -1.3697,-0.878 0.3121,-1.5311 0.7873,-7.9965 c -20.1818,13.6873 -15.5704,-24.7769 1.9157,-10.5889 l 1.8014,-9.9122 c -33.1943,-11.7063 -34.758,43.5509 -4.8165,30.0287 z m 103.4541,0.878 h 8.4772 l -7.0695,-31.6995 h -8.4773 l -16.657,31.1625 -8.9344,-16.4556 12.8801,-14.7069 h -9.221 l -7.1875,8.207 -4.4554,-8.207 h -9.221 l 7.9856,14.7069 -14.8828,16.9926 h 9.2211 l 9.1901,-10.4945 5.6981,10.4945 h 8.6405 0.5787 7.8986 l 2.8572,-5.3443 h 11.4868 z m -4.5734,-20.5101 1.8196,8.1616 h -6.1825 z m -62.4936,20.5101 h 8.4772 l 5.0069,-31.6995 h -8.4772 z m -13.7581,-12.3485 h -6.1824 l 4.3629,-8.1616 z"
       style="fill:#ffffff;fill-rule:evenodd"
       id="path82"
       inkscape:connector-curvature="0" />
    <path
       d="m 324.1517,496.5962 h 21.5569 l -1.0939,7.3507 h -6.8011 l -3.2907,24.3107 h -8.6152 l 3.2908,-24.3107 h -6.1407 z m 44.8335,10.2315 h 7.6228 l -0.3139,1.776 0.002,-0.002 c 0,0 0.9106,-2.4835 6.5579,-2.4835 5.6473,0 6.7031,3.7643 6.7031,3.7643 0,0 3.0875,-3.5393 8.1325,-3.8405 5.045,-0.3011 6.2496,4.5933 6.2496,4.5933 l -2.7865,17.6221 h -7.9058 l 2.2586,-13.5549 c 0,0 0.2267,-2.3347 -2.0336,-2.4853 -2.2604,-0.1506 -3.6137,1.9574 -3.6137,1.9574 l -2.7121,14.0828 h -7.6046 c 0,0 1.8812,-12.9526 1.8812,-14.0828 0,-1.1302 0.2866,-1.8286 -2.1134,-2.1279 -2.4001,-0.2994 -3.9874,2.0825 -3.9874,2.0825 l -0.002,-0.002 -2.4908,14.13 h -7.6228 z m -20.2562,7.4559 8.5099,0.1397 c 0,0 -0.3465,-3.4177 -4.254,-3.4177 -3.9076,0 -4.2559,3.278 -4.2559,3.278 z m -8.3702,3.7552 c -0.2921,7.0586 3.4087,10.4347 10.1825,10.9825 6.6831,-0.9832 10.8918,-3.4087 12.3812,-7.4124 h -8.265 c -0.6876,3.3507 -8.7893,2.1824 -7.1838,-3.1401 h 16.0565 c 0.1723,-0.9887 1.8358,-12.14 -10.5453,-12.2071 -12.9545,-0.0653 -12.6261,11.7771 -12.6261,11.7771 z"
       style="fill:#f07d1d;fill-rule:evenodd"
       id="path84"
       inkscape:connector-curvature="0" />
  </g>
</svg>
